<?xml version="1.0" standalone="no"?>
<!DOCTYPE svg PUBLIC "-//W3C//DTD SVG 20010904//EN"
 "http://www.w3.org/TR/2001/REC-SVG-20010904/DTD/svg10.dtd">
<svg version="1.0" xmlns="http://www.w3.org/2000/svg"
 width="512.000000pt" height="512.000000pt" viewBox="0 0 512.000000 512.000000"
 preserveAspectRatio="xMidYMid meet">
<metadata>
Created by potrace 1.14, written by Peter Selinger 2001-2017
</metadata>
<g transform="translate(0.000000,512.000000) scale(0.100000,-0.100000)"
fill="#000000" stroke="none">
<path d="M0 2560 l0 -2560 2560 0 2560 0 0 2560 0 2560 -2560 0 -2560 0 0
-2560z m2735 1310 c156 -33 277 -77 445 -162 238 -119 313 -186 463 -407 60
-90 183 -340 230 -472 42 -116 100 -233 125 -251 10 -7 29 -28 42 -47 13 -19
52 -66 87 -105 110 -123 132 -197 99 -324 -21 -77 -45 -113 -106 -154 -78 -53
-133 -65 -217 -49 -138 27 -150 26 -180 -7 -78 -85 -78 -85 -76 -222 4 -187
-30 -281 -125 -341 -68 -43 -113 -52 -237 -47 -118 5 -177 22 -249 71 -79 55
-163 18 -173 -76 -5 -45 -8 -48 -57 -71 -140 -65 -239 -65 -457 0 -154 45
-170 53 -358 162 -309 180 -382 233 -511 362 -223 222 -335 436 -371 708 -17
132 -6 520 19 642 26 122 71 246 123 332 129 219 402 386 746 457 139 29 143
29 403 26 195 -3 252 -7 335 -25z"/>
<path d="M3020 2988 c-15 -17 -20 -35 -20 -78 0 -156 -93 -279 -210 -280 -126
0 -211 91 -235 252 -8 56 -36 88 -74 88 -46 0 -66 -32 -65 -104 1 -132 70
-275 162 -336 69 -46 140 -63 236 -58 98 6 159 33 228 105 113 116 163 339 93
409 -32 32 -86 32 -115 2z"/>
<path d="M1813 2890 c-35 -14 -52 -51 -61 -136 -16 -141 -72 -204 -181 -204
-42 0 -56 5 -86 31 -36 32 -65 104 -65 161 0 31 -16 68 -34 80 -25 17 -65 8
-86 -19 -20 -25 -22 -37 -18 -113 7 -135 59 -224 162 -278 44 -23 63 -27 136
-27 79 0 90 3 150 36 124 68 190 188 190 344 0 63 -3 78 -22 99 -27 29 -55 38
-85 26z"/>
<path d="M2220 2747 c-21 -10 -48 -53 -73 -112 -3 -5 -22 7 -44 28 -47 45 -82
49 -112 11 -27 -34 -20 -62 30 -134 49 -71 88 -94 141 -87 51 7 96 49 133 125
40 82 44 124 12 156 -29 29 -50 32 -87 13z"/>
</g>
</svg>
